<?xml version="1.0" encoding="UTF-8"?>
<svg version="1.1" xmlns="http://www.w3.org/2000/svg" width="1024" height="1024">
<path d="M0 0 C337.92 0 675.84 0 1024 0 C1024 337.92 1024 675.84 1024 1024 C686.08 1024 348.16 1024 0 1024 C0 686.08 0 348.16 0 0 Z " fill="#299AFE" transform="translate(0,0)"/>
<path d="M0 0 C337.92 0 675.84 0 1024 0 C1024 148.5 1024 297 1024 450 C1014.36679331 443.57786221 1014.36679331 443.57786221 1009.94433594 440.17114258 C971.68648245 410.90443593 924.59426737 398.29687366 876.94946289 404.52368164 C844.19411332 409.33265339 813.82605162 425.1677342 787 444 C785.80088189 444.82957258 784.60166835 445.65900723 783.40234375 446.48828125 C770.06051188 455.79680101 757.27382786 465.90228505 744.93359375 476.49609375 C742.19631617 478.83243853 739.42256986 481.11147432 736.625 483.375 C731.50266476 487.54156423 726.52582622 491.86201281 721.54956055 496.20043945 C717.04197757 500.1212975 712.45615909 503.9283474 707.8125 507.6875 C704.4771645 510.42988696 701.20692308 513.24219033 697.9375 516.0625 C692.38809869 520.83853282 686.7617296 525.48084121 681 530 C679.71857591 531.02452188 678.43734276 532.0492826 677.15625 533.07421875 C626.48495345 573.35332233 570.27160622 598.20489995 504.875 598.25 C503.99183105 598.25067474 503.10866211 598.25134949 502.19873047 598.25204468 C470.75214267 598.21405027 440.835259 592.96048418 411 583 C410.28473145 582.76200684 409.56946289 582.52401367 408.83251953 582.27880859 C374.25292688 570.54811775 342.42309653 551.28836639 313.22412109 529.64746094 C310.94283726 527.95765816 308.65398269 526.27857216 306.36328125 524.6015625 C299.01067255 519.21122069 291.69273711 513.77754259 284.41381836 508.28808594 C230.70790778 467.81885666 172.47121429 437.57533216 103.1875 447.25 C100.59932938 447.65592686 98.02060347 448.09252132 95.44287109 448.56005859 C93.05627233 448.98986581 90.66583374 449.36698111 88.26953125 449.73828125 C58.57448813 454.66249272 28.83280907 467.21056987 3.17578125 482.70703125 C1 484 1 484 0 484 C0 324.28 0 164.56 0 0 Z " fill="#FEFEFE" transform="translate(0,0)"/>
<path d="M0 0 C0.81259277 0.26409668 1.62518555 0.52819336 2.46240234 0.80029297 C27.22051739 8.97765834 54.26853497 22.26853497 73 41 C73.09762224 43.34027124 73.12997604 45.65098381 73.12025452 47.99171448 C73.12110894 48.73169188 73.12196337 49.47166928 73.12284368 50.23407024 C73.12450069 52.73232413 73.11897353 55.23051198 73.11352539 57.72875977 C73.11324354 59.51213581 73.11340121 61.29551197 73.1139679 63.07888794 C73.11425596 67.93612191 73.10835788 72.79333141 73.10139394 77.65055966 C73.09516179 82.72080948 73.09455671 87.79105981 73.09336853 92.86131287 C73.0902548 102.46963693 73.08204086 112.07794968 73.07201904 121.68626875 C73.06085919 132.62199528 73.05534778 143.55772234 73.05032361 154.49345315 C73.03985828 176.99564172 73.02225804 199.49782022 73 222 C69.48019222 220.62075263 66.22564883 219.09775124 62.9296875 217.2421875 C43.83369689 206.61213369 25.26904227 198.20952108 4 193 C3.29713867 192.82065918 2.59427734 192.64131836 1.87011719 192.45654297 C-43.7790267 181.25013441 -91.91978869 196.64370435 -131 220 C-156.62782717 235.58488242 -179.91637047 254.57296536 -203.12695312 273.47509766 C-204.75554959 274.80098576 -206.38547078 276.12524635 -208.015625 277.44921875 C-212.27360242 280.91660679 -216.4989576 284.41563166 -220.67626953 287.97949219 C-226.20909792 292.69832941 -231.82489242 297.2759324 -237.56665039 301.73828125 C-241.34793939 304.68245144 -245.06874264 307.68894965 -248.76464844 310.73950195 C-257.88373343 318.25164538 -267.32698623 325.21993387 -277 332 C-277.61101563 332.43376953 -278.22203125 332.86753906 -278.8515625 333.31445312 C-317.83086856 360.88837927 -363.7165634 378.87598854 -411 385 C-411.84852539 385.11714355 -412.69705078 385.23428711 -413.57128906 385.35498047 C-437.86759051 388.63181632 -463.72168292 388.31209321 -488 385 C-488.75990234 384.90348145 -489.51980469 384.80696289 -490.30273438 384.70751953 C-531.6696553 379.37465441 -570.91866889 364.59307733 -608 346 C-608.79341797 345.60458008 -609.58683594 345.20916016 -610.40429688 344.80175781 C-634.7049512 332.60838255 -657.16000447 316.96382791 -679.09570312 300.9909668 C-698.50668089 286.87839368 -718.21134136 273.02137818 -739 261 C-739.69464355 260.5978125 -740.38928711 260.195625 -741.10498047 259.78125 C-794.99344181 228.77327944 -851.7284781 217.49607101 -912.78515625 233.25 C-921.77084316 235.6971658 -930.53727457 238.77942825 -939.26367188 242.02026367 C-941.72337722 242.90095582 -944.19188263 243.73727478 -946.67102051 244.56123352 C-947.88695263 244.96562889 -947.88695263 244.96562889 -949.12744904 245.37819386 C-950.05436176 245.6859879 -950.05436176 245.6859879 -951 246 C-951.39751963 223.87782889 -951.69709037 201.75624822 -951.88080692 179.63122749 C-951.96838777 169.35742786 -952.08772632 159.08584982 -952.2824707 148.81347656 C-952.45217793 139.85747597 -952.56164699 130.90308406 -952.59950441 121.94552028 C-952.62163091 117.20358804 -952.67340936 112.46625657 -952.79741096 107.72580338 C-953.52327989 78.88402281 -953.52327989 78.88402281 -949.35168648 72.46279144 C-945.46544914 68.75038996 -941.22417117 66.92454453 -936.0748806 65.58179092 C-933.05419387 64.73479851 -930.44211189 63.26185226 -927.70703125 61.75 C-925.74885043 60.81918498 -923.78383409 59.90262431 -921.8125 59 C-920.73081543 58.50435547 -919.64913086 58.00871094 -918.53466797 57.49804688 C-900.03443463 49.24762244 -880.4291015 42.48063318 -860.37646484 39.37353516 C-857.9267396 38.98848486 -855.490717 38.54801311 -853.05078125 38.10546875 C-828.32377677 33.89900357 -802.45366294 34.58627483 -778 40 C-777.07219727 40.20367187 -776.14439453 40.40734375 -775.18847656 40.6171875 C-740.76656511 48.46843657 -710.16689272 66.2442923 -682 87 C-680.53920756 88.06920864 -679.07826117 89.13820695 -677.6171875 90.20703125 C-670.19532284 95.64818336 -662.80833186 101.13413552 -655.45532227 106.66796875 C-640.04692455 118.26199244 -624.63786973 129.5596475 -608.19287109 139.65380859 C-606.19226282 140.88197092 -604.19916203 142.12144036 -602.20703125 143.36328125 C-563.83792248 167.07072705 -521.78255067 181.85263152 -477 187 C-476.28054199 187.09643799 -475.56108398 187.19287598 -474.81982422 187.29223633 C-465.80147194 188.39139083 -456.69510089 188.19963412 -447.625 188.1875 C-446.72716797 188.18656342 -445.82933594 188.18562683 -444.90429688 188.18466187 C-372.68939039 188.02093302 -312.73349279 156.66483266 -258.8671875 110.4375 C-256.32515492 108.27642598 -253.74667272 106.18795558 -251.125 104.125 C-246.14825856 100.18406816 -241.37969127 96.02115239 -236.59814453 91.84814453 C-232.09893076 87.9293282 -227.51722937 84.13242258 -222.87890625 80.37890625 C-219.34472915 77.45853467 -215.89168918 74.45165141 -212.4375 71.4375 C-206.73802038 66.47268003 -200.97041526 61.63848174 -195 57 C-193.52853516 55.85144531 -193.52853516 55.85144531 -192.02734375 54.6796875 C-136.96983778 11.89393309 -71.31198497 -23.51148876 0 0 Z " fill="#6BBCFE" transform="translate(951,409)"/>
<path d="M0 0 C0.85271484 0.20898926 1.70542969 0.41797852 2.58398438 0.63330078 C23.62294262 5.80776822 42.32429844 15.19016736 61 26 C61.85632019 26.34626938 62.71264038 26.69253876 63.59490967 27.04930115 C66 29 66 29 66.60127258 32.70158386 C66.61578733 34.2739293 66.60242573 35.84667385 66.56762695 37.41870117 C66.56835709 38.27745346 66.56908722 39.13620575 66.56983948 40.02098083 C66.56635322 42.86228385 66.52744384 45.70195182 66.48828125 48.54296875 C66.4789568 50.51165369 66.47183895 52.48035022 66.46684265 54.4490509 C66.44774391 59.63284286 66.3986181 64.81593529 66.34332275 69.99945068 C66.2921924 75.28794897 66.26934189 80.57656021 66.24414062 85.86523438 C66.19050234 96.24379708 66.10515457 106.62184039 66 117 C61.98612206 115.70814882 58.27266068 114.21741909 54.49536133 112.3347168 C14.11142095 92.27450107 -34.65481656 88.88847857 -77.47949219 103.13330078 C-99.80633967 110.81058755 -120.55883796 121.63449297 -140 135 C-141.04679932 135.7110791 -141.04679932 135.7110791 -142.11474609 136.43652344 C-152.19663981 143.30147449 -161.71807953 150.69000796 -171.11523438 158.45800781 C-174.01829743 160.83310447 -176.97663956 163.13517357 -179.9375 165.4375 C-185.19803543 169.53874276 -190.36252555 173.74579853 -195.5 178 C-201.19270654 182.71397391 -206.93433112 187.3483496 -212.76611328 191.88891602 C-216.50350153 194.80505817 -220.19001895 197.77619837 -223.85546875 200.78222656 C-279.81780094 246.65077253 -342.75310393 281.43798297 -415 292 C-416.22960449 292.18095215 -417.45920898 292.3619043 -418.72607422 292.54833984 C-430.36296864 294.14687231 -441.89332173 294.31677351 -453.625 294.25 C-454.59555328 294.24689819 -455.56610657 294.24379639 -456.56607056 294.24060059 C-470.79009212 294.18730022 -484.8877777 293.93382901 -499 292 C-499.97243652 291.87109375 -500.94487305 291.7421875 -501.94677734 291.609375 C-551.02094498 284.92271977 -599.34539217 268.20860009 -642 243 C-642.86383301 242.49130371 -643.72766602 241.98260742 -644.61767578 241.45849609 C-663.92433156 230.03155058 -682.65969755 217.74654888 -700.7734375 204.50927734 C-707.033851 199.94059831 -713.43806933 195.63085569 -719.91552734 191.37792969 C-722.24066024 189.84091281 -724.55249999 188.28506957 -726.86328125 186.7265625 C-787.6240648 145.79063522 -848.19442294 120.40529465 -922.38110352 134.28710938 C-933.19559591 136.45756323 -943.6204185 139.88492926 -954.05493164 143.42089844 C-956 144 -956 144 -958 144 C-958 113.97 -958 83.94 -958 53 C-934.74254442 43.69701777 -934.74254442 43.69701777 -926.125 41.1875 C-924.66791626 40.75679199 -924.66791626 40.75679199 -923.18139648 40.31738281 C-915.84204201 38.18002764 -908.55125455 36.23778296 -901 35 C-900.19143555 34.86609863 -899.38287109 34.73219727 -898.54980469 34.59423828 C-867.40807945 29.6131311 -835.18633268 30.3941418 -805 40 C-804.16887695 40.26377441 -803.33775391 40.52754883 -802.48144531 40.79931641 C-771.28441591 50.94626453 -742.87891671 67.44376286 -716 86 C-715.19852539 86.55300781 -714.39705078 87.10601563 -713.57128906 87.67578125 C-706.29373891 92.71124352 -699.02513044 97.7615857 -691.89453125 103.00390625 C-612.9610663 161.02248038 -522.43529747 202.30221358 -406.84960938 189.59423828 C-398.38395555 188.2874523 -390.21606547 186.40081824 -382 184 C-380.99356445 183.71640625 -379.98712891 183.4328125 -378.95019531 183.140625 C-364.63345831 179.08571959 -350.88869037 174.29409243 -337.36376953 168.08496094 C-335.11325763 167.05198481 -332.85319311 166.04352257 -330.58984375 165.0390625 C-315.28790493 158.15072991 -300.72040102 149.65383136 -287 140 C-286.34209473 139.53899902 -285.68418945 139.07799805 -285.00634766 138.60302734 C-275.31127647 131.78621443 -265.94828169 124.66823589 -256.80859375 117.125 C-253.1932406 114.14235661 -249.51303864 111.25079422 -245.8125 108.375 C-240.72887033 104.4142317 -235.78824353 100.31592401 -230.89379883 96.12451172 C-226.43821946 92.32664467 -221.85278204 88.7167313 -217.23046875 85.125 C-213.23744466 82.0084934 -209.34748635 78.79400472 -205.5 75.5 C-149.21671283 27.44853567 -77.51178854 -20.41018645 0 0 Z " fill="#50AFFE" transform="translate(958,602)"/>
<path d="M0 0 C0.72272095 0.00215515 1.44544189 0.0043103 2.19006348 0.00653076 C13.62267197 0.06107384 24.66478396 0.62419102 35.8125 3.3125 C36.63008789 3.50585938 37.44767578 3.69921875 38.29003906 3.8984375 C71.70570089 12.05412445 99.72848275 29.72752475 126.8125 50.3125 C127.66954529 50.82409668 128.52659058 51.33569336 129.40960693 51.86279297 C132.26199252 54.77074969 132.39899699 56.59040863 132.43460083 60.5851593 C132.41662445 61.4216954 132.39864807 62.25823151 132.38012695 63.12011719 C132.38085709 64.00827621 132.38158722 64.89643524 132.38233948 65.81150818 C132.37885831 68.74475352 132.33997229 71.67640738 132.30078125 74.609375 C132.29145501 76.64389173 132.284338 78.67841969 132.27934265 80.71295166 C132.26025811 86.06605061 132.21114428 91.4184705 132.15582275 96.77130127 C132.10466196 102.23415948 132.08183535 107.69712749 132.05664062 113.16015625 C132.00302735 123.87790241 131.91769653 134.59514472 131.8125 145.3125 C130.3829454 144.36732296 128.9544383 143.4205615 127.52636719 142.47314453 C126.73075378 141.94608917 125.93514038 141.41903381 125.11541748 140.87600708 C122.59094143 139.16207846 120.17298179 137.34485476 117.75683594 135.48364258 C79.49898245 106.21693593 32.40676737 93.60937366 -15.23803711 99.83618164 C-47.99338668 104.64515339 -78.36144838 120.4802342 -105.1875 139.3125 C-106.38661811 140.14207258 -107.58583165 140.97150723 -108.78515625 141.80078125 C-122.12698812 151.10930101 -134.91367214 161.21478505 -147.25390625 171.80859375 C-149.99118383 174.14493853 -152.76493014 176.42397432 -155.5625 178.6875 C-160.68483524 182.85406423 -165.66167378 187.17451281 -170.63793945 191.51293945 C-175.14552243 195.4337975 -179.73134091 199.2408474 -184.375 203 C-187.7103355 205.74238696 -190.98057692 208.55469033 -194.25 211.375 C-199.79940131 216.15103282 -205.4257704 220.79334121 -211.1875 225.3125 C-212.46892409 226.33702188 -213.75015724 227.3617826 -215.03125 228.38671875 C-265.70254655 268.66582233 -321.91589378 293.51739995 -387.3125 293.5625 C-388.19566895 293.56317474 -389.07883789 293.56384949 -389.98876953 293.56454468 C-421.43535733 293.52655027 -451.352241 288.27298418 -481.1875 278.3125 C-481.90276855 278.07450684 -482.61803711 277.83651367 -483.35498047 277.59130859 C-517.93457312 265.86061775 -549.76440347 246.60086639 -578.96337891 224.95996094 C-581.24466274 223.27015816 -583.53351731 221.59107216 -585.82421875 219.9140625 C-593.17682745 214.52372069 -600.49476289 209.09004259 -607.77368164 203.60058594 C-661.47959222 163.13135666 -719.71628571 132.88783216 -789 142.5625 C-791.58817062 142.96842686 -794.16689653 143.40502132 -796.74462891 143.87255859 C-799.13122767 144.30236581 -801.52166626 144.67948111 -803.91796875 145.05078125 C-833.61301187 149.97499272 -863.35469093 162.52306987 -889.01171875 178.01953125 C-891.1875 179.3125 -891.1875 179.3125 -892.1875 179.3125 C-892.1875 150.6025 -892.1875 121.8925 -892.1875 92.3125 C-847.36464188 66.69943822 -797.95230873 45.80025071 -745.52758789 46.05175781 C-742.88859871 46.06244493 -740.25029638 46.05181469 -737.61132812 46.0390625 C-722.0477107 46.02428086 -706.88591675 47.20342434 -691.75 51 C-690.15671875 51.39517822 -690.15671875 51.39517822 -688.53125 51.79833984 C-654.83067408 60.42118576 -624.13404024 77.74883106 -596.83496094 99.04150391 C-594.43031786 100.89665682 -591.96713149 102.66667926 -589.5 104.4375 C-585.67393459 107.20360359 -581.91952514 110.04576731 -578.1875 112.9375 C-558.66140988 128.03121494 -538.67415771 142.13991523 -517.1875 154.3125 C-516.60033203 154.65200684 -516.01316406 154.99151367 -515.40820312 155.34130859 C-464.0538508 184.94506324 -397.70319332 198.08970916 -339.1875 186.3125 C-338.19331055 186.11382324 -337.19912109 185.91514648 -336.17480469 185.71044922 C-315.07079825 181.34511786 -295.14368329 174.57348387 -276.1875 164.3125 C-275.47142578 163.93367676 -274.75535156 163.55485352 -274.01757812 163.16455078 C-258.40450811 154.90099833 -244.16950443 145.09182017 -230.1875 134.3125 C-229.37249023 133.68674072 -229.37249023 133.68674072 -228.54101562 133.04833984 C-216.790076 124.0073518 -205.57704204 114.41849497 -194.60546875 104.44921875 C-192.06336356 102.20280269 -189.45370605 100.06628947 -186.8125 97.9375 C-182.79920489 94.69294874 -178.96364189 91.32473761 -175.1875 87.8125 C-170.6599602 83.61052634 -166.01679313 79.60984576 -161.203125 75.73828125 C-158.99107784 73.95890135 -156.79543161 72.16619447 -154.609375 70.35546875 C-139.79560231 58.12420604 -124.4023026 46.62736205 -108.1875 36.3125 C-107.61708984 35.94882324 -107.04667969 35.58514648 -106.45898438 35.21044922 C-85.45883121 21.94562994 -63.28323191 10.92999397 -39.25 4.4375 C-38.18797363 4.15048218 -38.18797363 4.15048218 -37.10449219 3.85766602 C-24.85889801 0.77102461 -12.57245808 -0.06786703 0 0 Z " fill="#C0E2FE" transform="translate(892.1875,304.6875)"/>
<path d="M0 0 C0.81259277 0.26409668 1.62518555 0.52819336 2.46240234 0.80029297 C27.22051739 8.97765834 54.26853497 22.26853497 73 41 C73.09519368 43.7998972 73.12553944 46.57506174 73.11352539 49.37524414 C73.11367142 50.25321152 73.11381744 51.13117889 73.1139679 52.03575134 C73.11326844 54.95224435 73.10547455 57.86867433 73.09765625 60.78515625 C73.09579218 62.80154892 73.09436823 64.81794204 73.09336853 66.83433533 C73.08954244 72.15265138 73.07971139 77.4709403 73.06866455 82.78924561 C73.05845238 88.21170688 73.05387133 93.63417252 73.04882812 99.05664062 C73.0380892 109.70443903 73.02101169 120.35221726 73 131 C71.57876773 130.21789729 70.15845665 129.43412047 68.73852539 128.6496582 C67.94748917 128.21337601 67.15645294 127.77709381 66.34144592 127.32759094 C63.60944513 125.77855687 60.97119329 124.11390593 58.33349609 122.41113281 C34.42658958 106.98215838 8.94365461 97.76253039 -19 93 C-19.95084473 92.82275391 -20.90168945 92.64550781 -21.88134766 92.46289062 C-38.42830383 90.00688398 -56.74903698 91.30767402 -73 95 C-74.42158779 95.29435924 -75.8434687 95.58730608 -77.265625 95.87890625 C-125.22076928 106.06556326 -165.40044804 136.18469875 -201.81152344 167.56103516 C-205.31253701 170.57297876 -208.84804806 173.53073729 -212.4375 176.4375 C-216.87240288 180.03636817 -221.1955088 183.74750473 -225.5 187.5 C-230.60745721 191.94935527 -235.75929748 196.32259472 -241.02734375 200.58203125 C-243.2843572 202.4178937 -245.52358429 204.26891474 -247.75390625 206.13671875 C-267.39843531 222.54807112 -287.94260847 237.96371659 -310 251 C-310.57588867 251.34740234 -311.15177734 251.69480469 -311.74511719 252.05273438 C-341.45228066 269.9123027 -375.67563596 281.44168984 -410 286 C-410.76812012 286.10441406 -411.53624023 286.20882813 -412.32763672 286.31640625 C-436.90615229 289.49366578 -463.48096681 289.82411706 -488 286 C-488.89831543 285.87109375 -489.79663086 285.7421875 -490.72216797 285.609375 C-527.53049501 280.30985916 -563.19213202 268.49690127 -596.04638672 251.03222656 C-598.10473738 249.94466013 -600.17890132 248.89133996 -602.25390625 247.8359375 C-625.41272198 235.80381389 -647.08700482 220.2973427 -667.87597656 204.59130859 C-671.65257262 201.76190019 -675.48308601 199.00727473 -679.3125 196.25 C-680.43446777 195.44199951 -680.43446777 195.44199951 -681.57910156 194.61767578 C-683.03317962 193.57129216 -684.48759752 192.5253806 -685.94238281 191.47998047 C-687.86753645 190.09527694 -689.78957422 188.70636171 -691.7109375 187.31640625 C-695.12357313 184.85312192 -698.55376977 182.4160475 -702 180 C-702.55091309 179.61312012 -703.10182617 179.22624023 -703.66943359 178.82763672 C-755.41722509 142.75554458 -813.81875961 122.46979327 -877 133 C-902.17084091 137.57329363 -924.89863464 147.41219299 -947.58935547 158.84179688 C-950 160 -950 160 -951 160 C-951.39494694 149.09141479 -951.69644646 138.18454349 -951.88080692 127.27025032 C-951.96932815 122.20102612 -952.08919682 117.13671025 -952.2824707 112.0703125 C-952.46805587 107.17447275 -952.5689842 102.28332951 -952.61291313 97.38424301 C-952.64418294 95.52172702 -952.70526766 93.65945213 -952.79741096 91.79895401 C-953.35968429 79.9686111 -953.35968429 79.9686111 -951 75 C-946.89710221 70.63781745 -941.51701587 68.19021015 -936.0748806 65.88492203 C-933.20434065 64.66065686 -930.46728125 63.20279346 -927.70703125 61.75 C-925.74885043 60.81918498 -923.78383409 59.90262431 -921.8125 59 C-920.73081543 58.50435547 -919.64913086 58.00871094 -918.53466797 57.49804688 C-900.03443463 49.24762244 -880.4291015 42.48063318 -860.37646484 39.37353516 C-857.9267396 38.98848486 -855.490717 38.54801311 -853.05078125 38.10546875 C-828.32377677 33.89900357 -802.45366294 34.58627483 -778 40 C-777.07219727 40.20367187 -776.14439453 40.40734375 -775.18847656 40.6171875 C-740.76656511 48.46843657 -710.16689272 66.2442923 -682 87 C-680.53920756 88.06920864 -679.07826117 89.13820695 -677.6171875 90.20703125 C-670.19532284 95.64818336 -662.80833186 101.13413552 -655.45532227 106.66796875 C-640.04692455 118.26199244 -624.63786973 129.5596475 -608.19287109 139.65380859 C-606.19226282 140.88197092 -604.19916203 142.12144036 -602.20703125 143.36328125 C-563.83792248 167.07072705 -521.78255067 181.85263152 -477 187 C-476.28054199 187.09643799 -475.56108398 187.19287598 -474.81982422 187.29223633 C-465.80147194 188.39139083 -456.69510089 188.19963412 -447.625 188.1875 C-446.72716797 188.18656342 -445.82933594 188.18562683 -444.90429688 188.18466187 C-372.68939039 188.02093302 -312.73349279 156.66483266 -258.8671875 110.4375 C-256.32515492 108.27642598 -253.74667272 106.18795558 -251.125 104.125 C-246.14825856 100.18406816 -241.37969127 96.02115239 -236.59814453 91.84814453 C-232.09893076 87.9293282 -227.51722937 84.13242258 -222.87890625 80.37890625 C-219.34472915 77.45853467 -215.89168918 74.45165141 -212.4375 71.4375 C-206.73802038 66.47268003 -200.97041526 61.63848174 -195 57 C-193.52853516 55.85144531 -193.52853516 55.85144531 -192.02734375 54.6796875 C-136.96983778 11.89393309 -71.31198497 -23.51148876 0 0 Z " fill="#8FCCFE" transform="translate(951,409)"/>
</svg>
